<?xml version="1.0" encoding="UTF-8" standalone="no"?><svg xmlns:svg="http://www.w3.org/2000/svg" xmlns="http://www.w3.org/2000/svg" xmlns:xlink="http://www.w3.org/1999/xlink" version="1.0" width="64px" height="64px" viewBox="0 0 128 128" xml:space="preserve"><g><path d="M77.3 1.4l.84 8L86 11.04l-7.34 3.27.84 8-5.37-5.97-7.33 3.27 4-6.95-5.35-5.96 7.84 1.65zm29.52 15.04l-3.26 7.33 5.96 5.37-8-.83-3.25 7.35-1.67-7.85-7.98-.84 6.95-4.02-1.66-7.85 5.98 5.35zm18.05 27.78l-6.5 4.72 2.47 7.63-6.5-4.7-6.5 4.7 2.5-7.62-6.5-4.72h8.03l2.48-7.63 2.48 7.63zm1.73 33.1l-8 .82-1.65 7.85-3.27-7.35-8 .84 5.98-5.38-3.27-7.33 6.94 4 5.96-5.36-1.66 7.84zm-15.04 29.5l-7.33-3.26-5.37 5.96.83-8-7.35-3.25 7.85-1.67.84-7.98 4.02 6.95 7.85-1.66-5.35 5.98zm-27.78 18.05l-4.72-6.5-7.63 2.47 4.7-6.5-4.7-6.5 7.62 2.5 4.72-6.5v8.03l7.63 2.48-7.63 2.48zm-33.1 1.73l-.82-8-7.85-1.65 7.35-3.27-.84-8 5.38 5.98 7.33-3.27-4 6.94 5.36 5.96-7.84-1.66zm-29.5-15.04l3.26-7.33-5.96-5.37 8 .83 3.25-7.35 1.67 7.85 7.98.84-6.95 4.02 1.66 7.85-5.98-5.35zM3.13 83.78l6.5-4.72-2.48-7.63 6.5 4.7 6.5-4.7-2.5 7.62 6.5 4.72h-8.02l-2.5 7.63-2.47-7.63zM1.4 50.68l8-.82L11.04 42l3.27 7.34 8-.84-5.97 5.37 3.27 7.33-6.95-4-5.96 5.35 1.65-7.84zm15.04-29.5l7.33 3.26 5.37-5.96-.83 8 7.35 3.25-7.85 1.67-.84 7.98-4.02-6.95-7.85 1.66 5.35-5.98zM44.22 3.13l4.72 6.5 7.63-2.48-4.7 6.5 4.7 6.5-7.62-2.5-4.72 6.5v-8.02l-7.63-2.5 7.63-2.47z" fill="#006aff" fill-opacity="1"/><animateTransform attributeName="transform" type="rotate" from="0 64 64" to="30 64 64" dur="900ms" repeatCount="indefinite"></animateTransform></g></svg>