<svg id="Capa_1" data-name="Capa 1" xmlns="http://www.w3.org/2000/svg" viewBox="0 0 486.74 486.74"><title>chart</title><path d="M33,362.37v78.9a8.81,8.81,0,0,0,8.8,8.8h61a8.81,8.81,0,0,0,8.8-8.8V302.47l-44.3,44.3A53.74,53.74,0,0,1,33,362.37Z"/><path d="M142,301.47v139.8a8.81,8.81,0,0,0,8.8,8.8h61a8.81,8.81,0,0,0,8.8-8.8V359a53.17,53.17,0,0,1-36.7-15.6Z"/><path d="M251,350.27v91a8.81,8.81,0,0,0,8.8,8.8h61a8.81,8.81,0,0,0,8.8-8.8V273.37l-69.9,69.9A52.35,52.35,0,0,1,251,350.27Z"/><path d="M432.7,170.17,360,242.87v198.4a8.81,8.81,0,0,0,8.8,8.8h61a8.81,8.81,0,0,0,8.8-8.8V175.67c-2-1.7-3.5-3.2-4.6-4.2Z"/><path d="M482.6,41.37c-2.9-3.1-7.3-4.7-12.9-4.7h-1.6c-28.4,1.3-56.7,2.7-85.1,4-3.8.2-9,.4-13.1,4.5a14.9,14.9,0,0,0-3.1,4.6c-4.2,9.1,1.7,15,4.5,17.8l7.1,7.2c4.9,5,9.9,10,14.9,14.9L221.7,261.37l-77.1-77.1a24.5,24.5,0,0,0-34.7,0L7.2,286.87a24.5,24.5,0,0,0,0,34.7l4.6,4.6a24.5,24.5,0,0,0,34.7,0l80.7-80.7,77.1,77.1a24.62,24.62,0,0,0,34.8,0L432.7,129l21.9,21.8c2.6,2.6,6.2,6.2,11.7,6.2a14.48,14.48,0,0,0,7-1.9,19,19,0,0,0,4.2-3.1c4.3-4.3,5.1-9.8,5.3-14.1.8-18.4,1.7-36.8,2.6-55.3l1.3-27.7C487,49.07,485.7,44.57,482.6,41.37Z"/></svg>