<svg id="Capa_1" data-name="Capa 1" xmlns="http://www.w3.org/2000/svg" viewBox="0 0 460.3 460.3"><defs><style>.cls-1{fill:#111;}</style></defs><title>home</title><path class="cls-1" d="M230.15,120.94,66,256.27a3.88,3.88,0,0,1-.14.86,3.91,3.91,0,0,0-.14.85V395A18.54,18.54,0,0,0,84,413.3H193.6V303.66h73.1V413.3H376.33A18.56,18.56,0,0,0,394.61,395V258a4,4,0,0,0-.29-1.71Z"/><path class="cls-1" d="M457.12,225.44l-62.52-52V57a8.8,8.8,0,0,0-9.14-9.14H330.65A8.79,8.79,0,0,0,321.51,57v55.67L251.85,54.42a35.42,35.42,0,0,0-43.39,0L3.17,225.44A8.29,8.29,0,0,0,0,231.57a9.25,9.25,0,0,0,2,6.71l17.7,21.13a9.74,9.74,0,0,0,6,3.14,10.61,10.61,0,0,0,6.86-2L230.15,95.82,427.72,260.56a8.8,8.8,0,0,0,6,2h.86a9.75,9.75,0,0,0,6-3.14l17.7-21.13a9.24,9.24,0,0,0,2-6.72A8.32,8.32,0,0,0,457.12,225.44Z"/></svg>